<svg width="150" height="14" viewBox="0 0 150 14" fill="none" xmlns="http://www.w3.org/2000/svg">
<path d="M4.71313 0.276001H4.32561V2.2377H9.65658V6.73552C9.65658 9.69433 7.79231 11.0708 5.93852 11.0708C5.39953 11.0702 4.86633 10.9558 4.37158 10.7345C3.87683 10.5133 3.43096 10.1898 3.06128 9.78387C2.69161 9.37798 2.40591 8.89825 2.22171 8.37408C2.03751 7.84991 1.95867 7.29233 1.99004 6.73552V6.33451H0.000102506V6.73552C-0.00889125 8.36585 0.574235 9.9402 1.63395 11.1466C2.18846 11.7477 2.85712 12.2236 3.5979 12.5444C4.33869 12.8652 5.13558 13.024 5.93852 13.0108C6.72887 13.0382 7.51594 12.8931 8.24855 12.585C8.98116 12.2769 9.64289 11.8127 10.1907 11.2225C11.2405 10.0014 11.8021 8.41275 11.7617 6.77888V0.276001H4.71313Z" fill="#464646"/>
<path d="M31.1794 0.276001H30.7919V6.10691C30.7919 9.46673 28.6972 11.0057 26.7282 11.0057C24.7592 11.0057 22.675 9.46673 22.675 6.10691V0.276001H20.5803V6.10691C20.5453 7.05403 20.6983 7.99852 21.0297 8.88209C21.3612 9.76566 21.8641 10.5696 22.5074 11.2442C23.6665 12.344 25.1819 12.9541 26.7544 12.9541C28.3269 12.9541 29.8423 12.344 31.0014 11.2442C31.6439 10.5694 32.1455 9.76522 32.4752 8.88151C32.8049 7.99779 32.9556 7.0534 32.918 6.10691V0.276001H31.2004H31.1794Z" fill="#464646"/>
<path d="M51.4035 0.276001H51.016V0.677012V9.4017L43.7475 0.416897L43.6323 0.276001H43.4542H42.0927H41.7156V0.677012V12.3822V12.7724H42.0927H43.4228H43.7998V12.3822V3.6575L51.0789 12.6315L51.1941 12.7724H51.3721H52.7232H53.1107V12.3822V0.677012V0.276001H52.7232H51.4035Z" fill="#464646"/>
<path d="M84.7194 10.8323V0.677012V0.276001H84.3319H82.9913H82.6143V0.677012V12.3822V12.7724H82.9913H91.7261H92.1136V12.3822V11.2225V10.8323H91.7261H84.7194Z" fill="#464646"/>
<path d="M108.316 0.276001H107.928V6.10691C107.928 9.46673 105.834 11.0057 103.865 11.0057C101.896 11.0057 99.8116 9.46673 99.8116 6.10691V0.276001H97.7169V6.10691C97.6794 7.05433 97.8312 7.99956 98.1627 8.88351C98.4943 9.76745 98.9986 10.5711 99.644 11.2442C100.802 12.3409 102.316 12.9491 103.886 12.9491C105.456 12.9491 106.969 12.3409 108.127 11.2442C108.77 10.5694 109.272 9.76522 109.601 8.88151C109.931 7.99779 110.082 7.0534 110.044 6.10691V0.276001H108.326H108.316Z" fill="#464646"/>
<path d="M149.34 12.1004L143.433 5.97685L149.047 0.980479L149.833 0.276001H148.796H146.827H146.68L146.575 0.373544L140.93 5.4783L140.92 5.48914L139.663 6.71385V0.677012V0.276001H139.275H137.956H137.568V0.677012V12.3822V12.7724H137.956H139.275H139.663V12.3822V9.33667L141.894 7.3533L147.036 12.664L147.151 12.7724H147.308H149.068H150L149.34 12.1004Z" fill="#464646"/>
<path d="M104.786 2.3786H105.174V1.97759V0.677012V0.276001H104.786H103.247H102.87V0.677012V1.97759V2.3786H103.247H104.786Z" fill="#464646"/>
<path d="M127.493 9.00068C127.13 9.65774 126.595 10.1961 125.951 10.5544C125.307 10.9127 124.578 11.0766 123.848 11.0274C123.286 11.0444 122.726 10.9416 122.203 10.7254C121.681 10.5091 121.207 10.184 120.811 9.77018C120.028 8.88427 119.607 7.7188 119.638 6.51875C119.598 5.31716 120.02 4.14829 120.811 3.26731C121.208 2.85601 121.682 2.53324 122.205 2.31888C122.727 2.10453 123.286 2.00312 123.848 2.02092C124.581 1.96522 125.313 2.12492 125.962 2.4816C126.61 2.83828 127.148 3.37741 127.514 4.03682H129.608L129.462 3.61413C129.048 2.4551 128.24 1.49187 127.189 0.904597C126.17 0.318924 125.024 0.0094756 123.858 0.0050319C123.021 -0.0295588 122.186 0.11448 121.405 0.428185C120.624 0.741891 119.914 1.21855 119.319 1.82851C118.723 2.43847 118.256 3.16868 117.945 3.97371C117.634 4.77874 117.486 5.64136 117.512 6.50791C117.49 7.36797 117.638 8.22358 117.946 9.02265C118.254 9.82172 118.716 10.5475 119.304 11.1559C119.892 11.7643 120.593 12.2424 121.366 12.5613C122.138 12.8802 122.965 13.0331 123.796 13.0108V13.0108C124.934 13.0234 126.055 12.7323 127.053 12.1654C128.114 11.5571 128.945 10.5943 129.409 9.43421L129.577 9.00068H127.482H127.493Z" fill="#464646"/>
<path d="M68.0353 5.83594V7.78681H71.8057C71.6875 8.74646 71.2145 9.62136 70.486 10.2277C69.7575 10.834 68.8303 11.1245 67.8992 11.0382C67.3154 11.0691 66.7319 10.9733 66.1861 10.7568C65.6403 10.5404 65.1442 10.2081 64.7299 9.78144C64.3156 9.35476 63.9922 8.84308 63.7805 8.2793C63.5687 7.71552 63.4733 7.11213 63.5003 6.50791C63.4684 5.30558 63.8933 4.13824 64.6838 3.25647C65.0963 2.83454 65.5878 2.50438 66.1282 2.28631C66.6685 2.06824 67.2462 1.96686 67.8258 1.98841C69.0303 1.98841 70.9155 2.33523 71.7115 3.97179H73.8062L73.67 3.55994C72.7588 0.937112 70.109 0.00503239 67.9411 0.00503239C66.1931 -0.02737 64.5007 0.640543 63.2176 1.86919C62.6213 2.47401 62.1474 3.19573 61.8238 3.99219C61.5001 4.78865 61.333 5.64388 61.3323 6.50791C61.3323 10.2579 64.0031 13.0108 67.8782 13.0108C68.7723 13.0628 69.6661 12.9035 70.4918 12.5448C71.3174 12.1861 72.0533 11.6376 72.6436 10.9407C73.9633 9.19576 73.8376 6.74634 73.8376 5.83594H68.0353Z" fill="#464646"/>
</svg>
