<?xml version="1.0" encoding="UTF-8" standalone="no"?>
<!DOCTYPE svg PUBLIC "-//W3C//DTD SVG 1.1//EN" "http://www.w3.org/Graphics/SVG/1.1/DTD/svg11.dtd">
<svg width="100%" height="100%" viewBox="0 0 400 400" version="1.1" xmlns="http://www.w3.org/2000/svg" xmlns:xlink="http://www.w3.org/1999/xlink" xml:space="preserve" xmlns:serif="http://www.serif.com/" style="fill-rule:evenodd;clip-rule:evenodd;stroke-linejoin:round;stroke-miterlimit:2;">
    <rect x="0" y="0" width="400" height="400" style="fill:url(#_Radial1);"/>
    <g transform="matrix(1.10322,0,0,0.99024,58.4539,81.2381)">
        <g transform="matrix(402.82,0,0,448.781,0,318.617)">
            <path d="M0.093,-0.576C0.093,-0.621 0.102,-0.654 0.122,-0.677C0.141,-0.699 0.17,-0.71 0.209,-0.71L0.292,-0.71L0.292,-0.645L0.221,-0.645C0.202,-0.645 0.187,-0.639 0.177,-0.628C0.168,-0.616 0.163,-0.599 0.163,-0.577L0.163,-0L0.093,-0L0.093,-0.576ZM0.039,-0.507L0.292,-0.507L0.292,-0.446L0.039,-0.446L0.039,-0.507Z" style="fill:rgb(255,206,80);fill-rule:nonzero;"/>
        </g>
        <g transform="matrix(402.82,0,0,448.781,121.751,318.617)">
            <path d="M0.283,0.007C0.234,0.007 0.193,-0.001 0.161,-0.017C0.128,-0.033 0.104,-0.058 0.088,-0.09C0.072,-0.123 0.063,-0.164 0.063,-0.213L0.063,-0.296C0.063,-0.345 0.072,-0.385 0.088,-0.417C0.104,-0.45 0.128,-0.474 0.161,-0.49C0.193,-0.506 0.234,-0.514 0.283,-0.514C0.31,-0.514 0.336,-0.511 0.358,-0.505C0.381,-0.499 0.402,-0.49 0.419,-0.478C0.437,-0.466 0.453,-0.451 0.466,-0.433L0.414,-0.387C0.397,-0.408 0.377,-0.423 0.356,-0.433C0.334,-0.444 0.31,-0.449 0.284,-0.449C0.234,-0.449 0.196,-0.436 0.171,-0.411C0.146,-0.386 0.134,-0.347 0.134,-0.296L0.134,-0.213C0.134,-0.161 0.146,-0.122 0.171,-0.097C0.196,-0.071 0.234,-0.058 0.284,-0.058C0.312,-0.058 0.337,-0.063 0.36,-0.073C0.382,-0.083 0.403,-0.097 0.421,-0.117L0.466,-0.072C0.453,-0.054 0.437,-0.04 0.419,-0.028C0.402,-0.016 0.381,-0.007 0.358,-0.001C0.336,0.004 0.31,0.007 0.283,0.007Z" style="fill:rgb(255,206,80);fill-rule:nonzero;"/>
        </g>
    </g>
    <g transform="matrix(1,0,0,1,-9.69027,2.09204)">
        <path d="M492.266,28.887C492.266,28.887 542.636,-1.489 492.266,-1.489C492.266,-1.489 101.013,-1.489 101.013,-1.489C50.642,-1.489 9.748,39.406 9.748,89.776C9.748,89.776 9.748,459.062 9.748,459.062C9.748,464.379 40.124,462.592 40.124,462.592M40.124,462.592L40.124,89.776C40.124,56.171 67.408,28.887 101.013,28.887L492.266,28.887" style="fill:rgb(255,206,80);"/>
    </g>
    <defs>
        <radialGradient id="_Radial1" cx="0" cy="0" r="1" gradientUnits="userSpaceOnUse" gradientTransform="matrix(363.635,259.303,-259.303,363.635,316.108,280.543)"><stop offset="0" style="stop-color:rgb(42,91,101);stop-opacity:1"/><stop offset="0.1" style="stop-color:rgb(41,114,109);stop-opacity:1"/><stop offset="0.23" style="stop-color:rgb(40,133,116);stop-opacity:1"/><stop offset="0.68" style="stop-color:rgb(40,139,118);stop-opacity:1"/><stop offset="1" style="stop-color:rgb(255,206,80);stop-opacity:1"/></radialGradient>
    </defs>
</svg>
