<?xml version="1.0" encoding="utf-8"?>
<!-- Generator: Adobe Illustrator 25.2.3, SVG Export Plug-In . SVG Version: 6.00 Build 0)  -->
<svg version="1.1" id="Ebene_1" xmlns="http://www.w3.org/2000/svg" xmlns:xlink="http://www.w3.org/1999/xlink" x="0px" y="0px"
	 viewBox="0 0 804.22 135.87" style="enable-background:new 0 0 804.22 135.87;" xml:space="preserve">
<g>
	<g>
		<path d="M105.07,6.84V133h-6.13L5.63,28.67V133H0V6.84h13.51l85.93,96.4V6.84H105.07z M130.63,133h20.19V6.84h-20.19V133z
			 M327.41,128.4V71.17h53.37v-4.6h-53.37V11.45h67.86V6.84h-89.3V133h89.3v-4.6H327.41z M408.73,6.84v4.61h38.72V133h21.44V11.45
			h40.56V6.84H408.73z M640.18,71.18h50.28v-4.65h-50.28V71.18z M606.52,6.84c0,0,0.46,28.79-0.58,39.53
			c-2.18,22.46-12.57,37.52-29.2,37.34c-18.4-0.2-27.81-12.6-29.16-36.63c-0.6-10.76-0.26-40.23-0.26-40.23h-20.6
			c0,0-0.58,29.12,0.12,41.11c1.39,23.68,22.92,40.31,46.56,40.09c18.8-0.17,26.02-8.78,32.36-17.58
			c0.97,44.03-15.13,61.07-38.97,61.07c-13.89,0-27.33-8.22-34.08-20.38h-3.97c5.78,13.84,23.87,24.54,41,24.54
			c31.4,0,57.43-19.03,58.22-72.85c0.42-28.73,0-56,0-56H606.52z M752.12,0c-27.42,0-48.73,15.94-49.6,42.36
			c-0.97,29.55,21.83,45.93,47.86,45.87c20.04-0.05,26.68-8.84,32.36-17.58c0.37,40.52-12.72,61.07-38.97,61.07
			c-15.29,0-27.16-8-34-20.26h-4.37c7.72,14.05,22.44,24.41,41.32,24.42c34.73,0.01,57.49-25.88,57.49-77.51
			C804.22,19.35,786.35,0,752.12,0z M753.72,83.89c-18.77,0-31.21-17.3-31.21-39.96c0-25.23,10.86-39.96,31-39.96
			c20.47,0,29.6,15.39,29.6,40.82C783.11,64.68,771.36,83.89,753.72,83.89z M275.94,6.84v96.4l-85.93-96.4H176.5V133h5.63V28.67
			L275.44,133h6.13V6.84H275.94z"/>
	</g>
</g>
</svg>
